<svg xmlns="http://www.w3.org/2000/svg" xmlns:xlink="http://www.w3.org/1999/xlink" viewBox="0 0 166.95 37.7"><defs><style>.cls-1{fill:#166571;}</style></defs><g id="Capa_2" data-name="Capa 2"><g id="Capa_1-2" data-name="Capa 1"><path class="cls-1" d="M47.46,6.81v.41A3.07,3.07,0,0,0,46,7.86a1.76,1.76,0,0,0-.32,1.2v9.35a1.34,1.34,0,0,0,.45,1.18,3.32,3.32,0,0,0,1.73.31A3.25,3.25,0,0,0,50,19.32a6.74,6.74,0,0,0,1.54-2.23h.4l-.4,3.6H40.9v-.41a2.7,2.7,0,0,0,1.42-.66A2.67,2.67,0,0,0,42.64,18V9.17a2,2,0,0,0-.34-1.32,2.85,2.85,0,0,0-1.4-.63V6.81Z"/><path class="cls-1" d="M55.25,21.05a2.75,2.75,0,0,1-1.89-.69,2.15,2.15,0,0,1-.79-1.66,2,2,0,0,1,.78-1.62,9.38,9.38,0,0,1,3.24-1.29c.8-.21,1.37-.38,1.72-.51a2.49,2.49,0,0,0-.54-1.79,2.19,2.19,0,0,0-1.69-.56,2.89,2.89,0,0,0-2.68,1.49h-.35a3.89,3.89,0,0,1,1.41-2.24,4.17,4.17,0,0,1,2.6-.79,4.35,4.35,0,0,1,2.86.88A3,3,0,0,1,61,14.74V19c0,.8.19,1.19.55,1.19s.61-.27.7-.83h.39A1.76,1.76,0,0,1,62,20.6a2.41,2.41,0,0,1-1.54.45,2.59,2.59,0,0,1-1.33-.3,2.36,2.36,0,0,1-.84-1l-.2.19A4.16,4.16,0,0,1,55.25,21.05Zm3-1.9V15.76a8.66,8.66,0,0,0-2.34,1.29,2.09,2.09,0,0,0-.23,2.58,1,1,0,0,0,.89.44A2.51,2.51,0,0,0,58.28,19.15Z"/><path class="cls-1" d="M69.08,6.81H76.2a5.39,5.39,0,0,1,3.47,1,3.27,3.27,0,0,1,1.27,2.66,3.52,3.52,0,0,1-1.41,2.88,6,6,0,0,1-3.87,1.12,15.12,15.12,0,0,1-1.76-.11v4a2,2,0,0,0,.37,1.35,2.33,2.33,0,0,0,1.36.59v.41H69.08v-.41a2.43,2.43,0,0,0,1.4-.63,2.29,2.29,0,0,0,.36-1.47V9.12a1.91,1.91,0,0,0-.34-1.31,2.8,2.8,0,0,0-1.42-.59Zm6,.79H73.9v6a3.39,3.39,0,0,0,1,.17,2.55,2.55,0,0,0,2-.82,3.39,3.39,0,0,0,.71-2.29,3.23,3.23,0,0,0-.7-2.17A2.31,2.31,0,0,0,75.06,7.6Z"/><path class="cls-1" d="M91.16,11.6h.46v4.29h-.46a1.78,1.78,0,0,0-1.92-1.77H86.8V18.2a1.74,1.74,0,0,0,.42,1.32,2.26,2.26,0,0,0,1.47.38h.81q2,0,2.91-2.58h.41l-.26,3.37H82v-.41a2.4,2.4,0,0,0,1.39-.63,2.58,2.58,0,0,0,.35-1.59V9.14a2,2,0,0,0-.36-1.35A2.63,2.63,0,0,0,82,7.22V6.81H92.4V9.9H92a3.69,3.69,0,0,0-.87-1.83,2.41,2.41,0,0,0-1.65-.47H86.8v5.73h2.44a1.84,1.84,0,0,0,1.27-.39A2.47,2.47,0,0,0,91.16,11.6Z"/><path class="cls-1" d="M94,20.69v-.41c1.18-.09,1.76-.68,1.76-1.77V9.12a1.89,1.89,0,0,0-.36-1.33A2.68,2.68,0,0,0,94,7.22V6.81h6.6a7.27,7.27,0,0,1,4,.92,2.91,2.91,0,0,1,1.4,2.57,3,3,0,0,1-.73,2,4.1,4.1,0,0,1-2.08,1.25v.05a2.1,2.1,0,0,1,1.06.8,18.75,18.75,0,0,1,1.64,2.71,15.63,15.63,0,0,0,1.54,2.48,2.18,2.18,0,0,0,1.31.64v.41h-4a19.46,19.46,0,0,1-2-3.37,19.62,19.62,0,0,0-1.26-2.24,2.56,2.56,0,0,0-.86-.78,4.62,4.62,0,0,0-1.78-.22v4.26a2,2,0,0,0,.41,1.36,2.21,2.21,0,0,0,1.37.58v.41ZM99.72,7.6h-1v5.69l.67,0a3.48,3.48,0,0,0,2.42-.71,3,3,0,0,0,.76-2.25C102.62,8.52,101.65,7.6,99.72,7.6Z"/><path class="cls-1" d="M118.81,11.6h.45v4.29h-.45a1.79,1.79,0,0,0-1.93-1.77h-2.44V18.2a1.7,1.7,0,0,0,.43,1.32,2.22,2.22,0,0,0,1.47.38h.8c1.36,0,2.33-.86,2.92-2.58h.4l-.25,3.37H109.65v-.41a2.43,2.43,0,0,0,1.39-.63,2.59,2.59,0,0,0,.34-1.59V9.14A2,2,0,0,0,111,7.79a2.63,2.63,0,0,0-1.38-.57V6.81h10.4V9.9h-.41a3.78,3.78,0,0,0-.86-1.83,2.44,2.44,0,0,0-1.65-.47h-2.69v5.73h2.44a1.88,1.88,0,0,0,1.28-.39A2.55,2.55,0,0,0,118.81,11.6Z"/><path class="cls-1" d="M133.18,8.71l-3.28,4.67v5a2,2,0,0,0,.37,1.34,2.41,2.41,0,0,0,1.39.6v.41h-6.58v-.41a2.16,2.16,0,0,0,1.36-.59,2.17,2.17,0,0,0,.4-1.45v-4l-3.6-5.52a4.2,4.2,0,0,0-.93-1.09,2.21,2.21,0,0,0-1-.36V6.81h6.33v.41c-.67,0-1,.25-1,.67a2.06,2.06,0,0,0,.39,1l2.4,3.71,2.11-3a2.34,2.34,0,0,0,.5-1.27c0-.55-.36-.9-1.07-1.07V6.81h4.3v.41A3,3,0,0,0,133.18,8.71Z"/><path class="cls-1" d="M136.19,20.69v-.41c1.17-.09,1.76-.68,1.76-1.77V9.12a1.89,1.89,0,0,0-.36-1.33,2.72,2.72,0,0,0-1.4-.57V6.81h6.6a7.27,7.27,0,0,1,4,.92,2.91,2.91,0,0,1,1.4,2.57,3.08,3.08,0,0,1-.73,2,4.15,4.15,0,0,1-2.08,1.25v.05a2.08,2.08,0,0,1,1,.8,18.54,18.54,0,0,1,1.65,2.71,14.9,14.9,0,0,0,1.54,2.48,2.18,2.18,0,0,0,1.31.64v.41h-4a19.34,19.34,0,0,1-2-3.37,16.88,16.88,0,0,0-1.26-2.24,2.54,2.54,0,0,0-.85-.78,4.62,4.62,0,0,0-1.78-.22v4.26a2,2,0,0,0,.4,1.36,2.22,2.22,0,0,0,1.38.58v.41ZM142,7.6h-1v5.69l.67,0a3.45,3.45,0,0,0,2.41-.71,3,3,0,0,0,.76-2.25C144.85,8.52,143.89,7.6,142,7.6Z"/><path class="cls-1" d="M159.87,20.69v-.41a3.3,3.3,0,0,0,1.21-.4.75.75,0,0,0,.35-.66,3.47,3.47,0,0,0-.27-1.07l-.8-2.13h-5l-.69,1.84a3.58,3.58,0,0,0-.26,1.14c0,.61.47,1,1.39,1.28v.41h-4.48v-.41a2.38,2.38,0,0,0,1.42-.84A7.81,7.81,0,0,0,154,17.13l4-10.67h1.89l4.22,11.1a6.7,6.7,0,0,0,1.14,2.07,2.13,2.13,0,0,0,1.45.65v.41Zm-4-5.66H160L157.88,9.4Z"/><path class="cls-1" d="M45.79,27.67h-.15A2.42,2.42,0,0,0,45,26.43,1.65,1.65,0,0,0,43.84,26a1.35,1.35,0,0,0-1.17.63,2.85,2.85,0,0,0-.43,1.67,2.82,2.82,0,0,0,.51,1.8,1.66,1.66,0,0,0,1.39.64,1.84,1.84,0,0,0,.88-.2,2.83,2.83,0,0,0,.82-.64v.28a2.51,2.51,0,0,1-2.14,1.08,2.68,2.68,0,0,1-2-.75A2.64,2.64,0,0,1,41,28.55a2.8,2.8,0,0,1,2.86-2.86,3.62,3.62,0,0,1,1.12.22,1.19,1.19,0,0,0,.37.1c.12,0,.23-.09.32-.27h.15Z"/><path class="cls-1" d="M52.68,31.11V31a1.09,1.09,0,0,0,.46-.16.27.27,0,0,0,.13-.25,1.19,1.19,0,0,0-.1-.4l-.3-.81H51l-.26.7a1.5,1.5,0,0,0-.1.43c0,.23.18.39.53.49v.15h-1.7V31a1,1,0,0,0,.53-.32,2.93,2.93,0,0,0,.46-.88L52,25.69h.72l1.6,4.23a2.59,2.59,0,0,0,.44.79.81.81,0,0,0,.55.25v.15ZM51.15,29h1.58l-.81-2.15Z"/><path class="cls-1" d="M62,25.69v1.4h-.16a1.68,1.68,0,0,0-.53-.78,1.2,1.2,0,0,0-.77-.32,1,1,0,0,0-.62.21.63.63,0,0,0-.25.51.65.65,0,0,0,.07.29.75.75,0,0,0,.19.26,5.1,5.1,0,0,0,.81.55q.69.44.9.6a2.25,2.25,0,0,1,.38.42,1.5,1.5,0,0,1,.29.88,1.38,1.38,0,0,1-.5,1.12,1.79,1.79,0,0,1-1.2.42,3.67,3.67,0,0,1-.9-.14,1.77,1.77,0,0,0-.39-.07.28.28,0,0,0-.27.17h-.16V29.62h.16a1.73,1.73,0,0,0,.49,1,1.28,1.28,0,0,0,.92.36,1.1,1.1,0,0,0,.7-.21.64.64,0,0,0,.28-.54.81.81,0,0,0-.18-.5,3.62,3.62,0,0,0-.94-.69,5.42,5.42,0,0,1-.94-.66,1.43,1.43,0,0,1-.34-.51,1.53,1.53,0,0,1-.12-.6,1.47,1.47,0,0,1,.46-1.11,1.69,1.69,0,0,1,1.2-.44,2.43,2.43,0,0,1,.54.08,2.14,2.14,0,0,0,.45.07.38.38,0,0,0,.27-.15Z"/><path class="cls-1" d="M69.27,31.11V31a1,1,0,0,0,.45-.16.27.27,0,0,0,.14-.25,1.51,1.51,0,0,0-.1-.4l-.31-.81H67.57l-.26.7a1.23,1.23,0,0,0-.1.43c0,.23.17.39.53.49v.15H66V31a1,1,0,0,0,.54-.32,3.2,3.2,0,0,0,.45-.88l1.52-4.07h.72l1.61,4.23a2.61,2.61,0,0,0,.43.79.83.83,0,0,0,.55.25v.15ZM67.74,29h1.57l-.8-2.15Z"/><path class="cls-1" d="M80.69,31.11V31a1.11,1.11,0,0,0,.54-.26.91.91,0,0,0,.13-.6V26.73a.7.7,0,0,0-.13-.49,1.11,1.11,0,0,0-.54-.26v-.15h2.7a3.42,3.42,0,0,1,2.33.75,2.49,2.49,0,0,1,.85,2,2.45,2.45,0,0,1-.76,1.87,2.93,2.93,0,0,1-2.07.7Zm2.52-5h-.69v4.06a.55.55,0,0,0,.2.48,1.2,1.2,0,0,0,.66.14,1.72,1.72,0,0,0,1.42-.61,2.59,2.59,0,0,0,.5-1.72,2.52,2.52,0,0,0-.55-1.72A1.93,1.93,0,0,0,83.21,26.13Z"/><path class="cls-1" d="M93.9,27.65h.17v1.64H93.9a.68.68,0,0,0-.73-.68h-.93v1.55a.66.66,0,0,0,.16.51.9.9,0,0,0,.56.14h.31c.51,0,.88-.33,1.11-1h.15l-.1,1.28h-4V31a.67.67,0,0,0,.66-.85V26.72a.78.78,0,0,0-.13-.52,1.06,1.06,0,0,0-.53-.22v-.15h4V27h-.15a1.47,1.47,0,0,0-.33-.69.91.91,0,0,0-.63-.18h-1v2.18h.93a.69.69,0,0,0,.48-.15A.94.94,0,0,0,93.9,27.65Z"/><path class="cls-1" d="M106.07,25.83V26a1,1,0,0,0-.52.24,1,1,0,0,0-.14.61v3.39a.75.75,0,0,0,.13.5,1.14,1.14,0,0,0,.53.24v.15h-2.49V31a1.61,1.61,0,0,0,.42-.16.43.43,0,0,0,.19-.21,1.31,1.31,0,0,0,.06-.49V26.72a.81.81,0,0,0-.13-.5,1.24,1.24,0,0,0-.54-.24v-.15Z"/><path class="cls-1" d="M117,25.83V26a.89.89,0,0,0-.47.21.61.61,0,0,0-.14.42,1.85,1.85,0,0,0,0,.23l.48,3.3a1,1,0,0,0,.25.55,1,1,0,0,0,.56.27v.15H115.1V31a1,1,0,0,0,.47-.26.84.84,0,0,0,.14-.51,3.28,3.28,0,0,0,0-.4l-.43-3-1.74,4.33h-.19l-1.72-4.33-.45,3.1a2.24,2.24,0,0,0,0,.34.65.65,0,0,0,.65.74v.15h-1.92V31a.81.81,0,0,0,.63-.28,1.79,1.79,0,0,0,.31-.89l.52-3.44a1.06,1.06,0,0,0-.76-.37v-.15h1.91l1.37,3.48,1.4-3.48Z"/><path class="cls-1" d="M121.35,25.83h2.71a2,2,0,0,1,1.32.39,1.24,1.24,0,0,1,.49,1,1.36,1.36,0,0,1-.54,1.1,2.35,2.35,0,0,1-1.48.42,5.22,5.22,0,0,1-.67,0v1.51a.72.72,0,0,0,.15.51.9.9,0,0,0,.52.23v.15h-2.5V31a1,1,0,0,0,.54-.24.92.92,0,0,0,.13-.57V26.71a.71.71,0,0,0-.13-.5,1.05,1.05,0,0,0-.54-.23Zm2.28.3h-.45V28.4a1.43,1.43,0,0,0,.39.06,1,1,0,0,0,.76-.31,1.5,1.5,0,0,0,0-1.7A.9.9,0,0,0,123.63,26.13Z"/><path class="cls-1" d="M129.43,31.11V31c.45,0,.67-.26.67-.68V26.71a.74.74,0,0,0-.14-.51,1.06,1.06,0,0,0-.53-.22v-.15h2.51a2.78,2.78,0,0,1,1.52.35,1.09,1.09,0,0,1,.53,1,1.19,1.19,0,0,1-.27.78,1.6,1.6,0,0,1-.79.47v0a.85.85,0,0,1,.4.31,7.17,7.17,0,0,1,.62,1,6,6,0,0,0,.59.94.83.83,0,0,0,.5.25v.15h-1.52a6.72,6.72,0,0,1-.77-1.28,7.87,7.87,0,0,0-.48-.85,1.12,1.12,0,0,0-.33-.3,1.72,1.72,0,0,0-.68-.08v1.62a.74.74,0,0,0,.16.51.84.84,0,0,0,.52.23v.15Zm2.2-5h-.37V28.3h.26a1.31,1.31,0,0,0,.92-.27,1.12,1.12,0,0,0,.29-.85C132.73,26.48,132.36,26.13,131.63,26.13Z"/><path class="cls-1" d="M142.11,27.65h.17v1.64h-.17a.69.69,0,0,0-.74-.68h-.93v1.55a.66.66,0,0,0,.17.51.88.88,0,0,0,.56.14h.3c.52,0,.89-.33,1.11-1h.16l-.1,1.28h-4V31a1,1,0,0,0,.53-.24,1,1,0,0,0,.13-.61V26.72a.77.77,0,0,0-.14-.52,1,1,0,0,0-.52-.22v-.15h4V27h-.16a1.3,1.3,0,0,0-.33-.69.9.9,0,0,0-.62-.18h-1v2.18h.93a.7.7,0,0,0,.49-.15A1,1,0,0,0,142.11,27.65Z"/><path class="cls-1" d="M149.59,25.69v1.4h-.16a1.68,1.68,0,0,0-.53-.78,1.2,1.2,0,0,0-.77-.32,1,1,0,0,0-.62.21.63.63,0,0,0-.25.51.79.79,0,0,0,.06.29,1,1,0,0,0,.2.26,5.1,5.1,0,0,0,.81.55q.69.44.9.6a2.25,2.25,0,0,1,.38.42,1.49,1.49,0,0,1,.28.88,1.37,1.37,0,0,1-.49,1.12,1.79,1.79,0,0,1-1.2.42,3.74,3.74,0,0,1-.91-.14,1.62,1.62,0,0,0-.38-.07.28.28,0,0,0-.27.17h-.16V29.62h.16a1.73,1.73,0,0,0,.49,1,1.28,1.28,0,0,0,.92.36,1.12,1.12,0,0,0,.7-.21.66.66,0,0,0,.28-.54.81.81,0,0,0-.18-.5,3.62,3.62,0,0,0-.94-.69,5,5,0,0,1-.94-.66,1.43,1.43,0,0,1-.34-.51,1.53,1.53,0,0,1-.12-.6,1.43,1.43,0,0,1,.46-1.11,1.69,1.69,0,0,1,1.2-.44,2.43,2.43,0,0,1,.54.08,2.14,2.14,0,0,0,.45.07.39.39,0,0,0,.27-.15Z"/><path class="cls-1" d="M159.61,28.48a2.65,2.65,0,0,1-.81,2,3.14,3.14,0,0,1-4.14,0,2.87,2.87,0,0,1,0-4,3.09,3.09,0,0,1,4.13,0A2.66,2.66,0,0,1,159.61,28.48Zm-1.27,0a3.44,3.44,0,0,0-.41-1.87,1.43,1.43,0,0,0-2.4,0,3.54,3.54,0,0,0-.41,1.88,3.25,3.25,0,0,0,.42,1.79,1.32,1.32,0,0,0,1.19.64,1.35,1.35,0,0,0,1.19-.64A3.24,3.24,0,0,0,158.34,28.51Z"/><path class="cls-1" d="M166.64,25.69v1.4h-.15a1.68,1.68,0,0,0-.53-.78,1.21,1.21,0,0,0-.78-.32.92.92,0,0,0-.61.21.64.64,0,0,0-.26.51.82.82,0,0,0,.07.29.91.91,0,0,0,.19.26,6.42,6.42,0,0,0,.81.55,9.35,9.35,0,0,1,.9.6,2,2,0,0,1,.39.42,1.49,1.49,0,0,1,.28.88,1.35,1.35,0,0,1-.5,1.12,1.79,1.79,0,0,1-1.2.42,3.74,3.74,0,0,1-.9-.14A1.68,1.68,0,0,0,164,31a.29.29,0,0,0-.27.17h-.15V29.62h.15a1.74,1.74,0,0,0,.5,1,1.27,1.27,0,0,0,.92.36,1.14,1.14,0,0,0,.7-.21.65.65,0,0,0,.27-.54.86.86,0,0,0-.17-.5A3.73,3.73,0,0,0,165,29a5.22,5.22,0,0,1-.93-.66,1.46,1.46,0,0,1-.35-.51,1.53,1.53,0,0,1-.12-.6,1.44,1.44,0,0,1,.47-1.11,1.68,1.68,0,0,1,1.19-.44,2.59,2.59,0,0,1,.55.08,2.17,2.17,0,0,0,.44.07.41.41,0,0,0,.28-.15Z"/><image width="591" height="591" transform="scale(0.06)" xlink:href="logo.png"/></g></g></svg>